<mxfile host="app.diagrams.net" modified="2023-04-24T06:26:12.441Z" agent="Mozilla/5.0 (Windows NT 10.0; Win64; x64) AppleWebKit/537.36 (KHTML, like Gecko) Chrome/112.0.0.0 Safari/537.36" version="21.2.0" etag="GWFTvAaVTy2ZJs_cmYlJ" type="github">
  <diagram name="Page-1" id="Z6gg48Q0ch6leVeSbpk6">
    <mxGraphModel>
      <root>
        <mxCell id="0" />
        <mxCell id="1" parent="0" />
      </root>
    </mxGraphModel>
  </diagram>
</mxfile>
